<?xml version="1.0" standalone="no"?>
<!DOCTYPE svg PUBLIC "-//W3C//DTD SVG 20010904//EN"
 "http://www.w3.org/TR/2001/REC-SVG-20010904/DTD/svg10.dtd">
<svg version="1.0" xmlns="http://www.w3.org/2000/svg"
 width="500.000000pt" height="500.000000pt" viewBox="0 0 500.000000 500.000000"
 preserveAspectRatio="xMidYMid meet">
<metadata>
Created by potrace 1.16, written by Peter Selinger 2001-2019
</metadata>
<g transform="translate(0.000000,500.000000) scale(0.100000,-0.100000)"
fill="#000000" stroke="none">
<path d="M1795 3910 c-66 -14 -126 -39 -177 -71 -101 -65 -187 -193 -208 -310
-7 -37 -10 -371 -8 -960 l3 -904 24 -70 c107 -318 348 -486 604 -419 65 17
138 50 202 94 22 14 356 211 743 436 386 225 724 425 749 444 65 49 127 128
154 197 18 45 23 78 23 148 0 107 -27 187 -100 296 -99 150 -89 143 -936 632
-427 246 -801 456 -830 467 -64 22 -187 33 -243 20z m427 -519 l33 -29 3 -794
c2 -436 0 -807 -3 -824 -14 -79 -113 -113 -168 -58 -16 16 -28 42 -32 67 -3
23 -5 394 -3 825 l3 784 33 29 c44 39 90 39 134 0z m-346 -265 l34 -34 0 -546
c0 -401 -3 -552 -12 -571 -13 -29 -55 -55 -88 -55 -33 0 -75 26 -88 55 -9 19
-12 170 -12 571 l0 546 34 34 c25 25 43 34 66 34 23 0 42 -9 66 -34z m1266
-235 l33 -29 3 -308 c3 -324 0 -350 -42 -379 -36 -26 -94 -19 -127 14 l-29 29
0 322 0 322 29 29 c40 40 89 40 133 0z m309 -126 c29 -19 39 -76 39 -230 0
-173 -8 -203 -60 -230 -38 -20 -58 -19 -97 5 -46 28 -56 75 -52 257 4 152 4
152 33 182 16 16 38 32 50 33 22 4 67 -5 87 -17z m-916 1 c56 -24 65 -54 65
-229 0 -143 -2 -156 -22 -187 -39 -58 -105 -64 -154 -15 -24 24 -24 27 -24
202 1 192 3 200 56 228 36 18 37 18 79 1z m324 -151 c21 -21 26 -35 26 -76 0
-45 -4 -54 -33 -80 -69 -62 -162 -19 -162 76 0 56 11 80 48 100 36 20 90 12
121 -20z"/>
</g>
</svg>
